<svg xmlns="http://www.w3.org/2000/svg" viewBox="0 0 136.063 62.362">
  <!-- Stingray Marine Technology — on-dark gradient wordmark.
       Cleaned from Stingray_Logo_RGB_Grad OnDark.svg (brand suite);
       Adobe metadata/pgf payload stripped, paths verbatim. -->
  <path fill="#FFFFFF" d="M60.674,20.002c0.927-3.079,2.959-7.174,7.362-8.81c4.389,1.631,6.422,5.704,7.353,8.778
    c1.435,0.566,2.791,1.285,4.041,2.151c-0.53-3.422-2.653-11.816-10.876-14.402l-0.518-0.163l-0.518,0.163
    c-8.273,2.602-10.372,11.086-10.886,14.467C57.883,21.31,59.237,20.576,60.674,20.002z"/>
  <radialGradient id="srg" cx="68.0315" cy="37.5915" r="41.8953" gradientUnits="userSpaceOnUse">
    <stop offset="0" stop-color="#53B2B9"/>
    <stop offset="1" stop-color="#0C807E"/>
  </radialGradient>
  <path fill="url(#srg)" d="M68.544,29.874l0.545-3.431c2.607,0.244,4.957,1.379,6.747,3.095l-1.798,3.115
    C72.703,31.062,70.745,30.017,68.544,29.874z M57.172,24.231l1.757,3.042c2.094-1.835,4.739-3.051,7.653-3.36l0.402,2.53
    c-2.607,0.244-4.957,1.379-6.748,3.095l1.798,3.115c1.438-1.715,3.594-2.808,6.001-2.808c0,0,0,0,0,0v-3.454c0,0,0,0,0,0v-2.561
    c0,0,0,0,0,0v-3.454c0,0,0,0,0,0C63.923,20.377,60.145,21.825,57.172,24.231z M78.901,24.231c-2.484-2.01-5.534-3.338-8.868-3.725
    l-0.542,3.408c2.915,0.308,5.56,1.524,7.654,3.359L78.901,24.231z M16.195,47.647c-1.535-0.431-2.534-0.804-2.534-1.758
    c0-0.804,0.571-1.383,1.873-1.383c1.053,0,2.303,0.393,3.287,1.009l0.534-1.924c-1.071-0.635-2.32-1.027-3.838-1.027
    c-2.482,0-4,1.383-4,3.456c0,2.301,1.858,3.048,3.463,3.516c1.644,0.466,2.482,0.822,2.482,1.794c0,0.934-0.855,1.55-2.07,1.55
    c-1.339,0-2.519-0.466-3.555-1.121l-0.499,1.963c1.053,0.671,2.536,1.084,4.017,1.084c2.626,0,4.25-1.516,4.25-3.646
    C19.606,48.937,17.875,48.134,16.195,47.647z M25.473,44.844h3.731v9.682h2.161v-9.682h3.731v-2h-9.624V44.844z M41.8,54.526
    h2.161V42.844H41.8V54.526z M59.232,51.348l-5.286-8.504h-2.375v11.681h2.072V46.04l5.339,8.597h2.323V42.844h-2.072V51.348z
    M73.383,50.17h2.927v2.244c-0.552,0.26-1.319,0.466-2.107,0.466c-2.286,0-3.659-1.625-3.659-4.242
    c0-2.525,1.446-4.114,3.659-4.114c1.108,0,2.233,0.393,3.215,1.03l0.696-1.982c-0.999-0.635-2.589-1.009-3.945-1.009
    c-3.463,0-5.821,2.374-5.821,6.148c0,3.796,2.375,6.095,5.803,6.095c1.411,0,2.981-0.393,4.178-1.103v-5.458h-4.946V50.17z
    M106.397,42.844l4.017,11.681h-2.196l-0.927-2.767h-4.501l-0.909,2.767h-2.196l4.069-11.681H106.397z M106.737,49.871
    l-1.679-5.066l-1.697,5.066H106.737z M122.387,42.844l-2.591,5.045l-2.641-5.045h-2.358l3.893,7.138v4.543h2.159v-4.525
    l3.875-7.157H122.387z M89.739,42.544h-4.713v0.02h-0.024v3.792l-11.633,0.952h13.753l0.002-2.697h2.615
    c1.322,0,2.398,1.127,2.398,2.511v1.328c0,1.384-1.076,2.511-2.398,2.511h-2.615l-0.002-2.526l-2.12-0.174v6.266h2.122v-1.5h2.615
    c0.241,0,0.477-0.026,0.708-0.066l1.015,1.565h2.609l-1.617-2.495c1.009-0.839,1.658-2.132,1.658-3.582v-1.328
    C94.111,44.597,92.15,42.544,89.739,42.544z"/>
</svg>
